Coordinates
version=1
nRows=21
nColumns=12
inDegrees=yes

Units are S.I. units (second, meters, Newtons, ...)
Angles are in degrees

endheader
time	SC_y	SC_z	SC_x	AC_y	AC_z	AC_x	GH_y	GH_z	GH_yy	EL_x	PS_y
       0.0               -29.8          9.389          16.68          69.63          5.112         -8.086         -42.53          47.11          24.51          43.15           72.3
   0.01644               -29.8           9.39          16.68          69.63          5.111         -8.083         -42.53          47.11          24.49          43.15          72.31
   0.03287               -29.8          9.391          16.68          69.62           5.11         -8.079         -42.53          47.12          24.47          43.16          72.32
   0.04931               -29.8          9.391          16.68          69.62           5.11         -8.075         -42.53          47.12          24.44          43.16          72.33
   0.06574              -29.81          9.392          16.68          69.61          5.109         -8.071         -42.53          47.13          24.42          43.16          72.34
   0.08218              -29.81          9.393          16.68          69.61          5.108         -8.066         -42.53          47.14           24.4          43.16          72.36
   0.09862              -29.81          9.394          16.67           69.6          5.107         -8.061         -42.53          47.15          24.37          43.16          72.37
    0.1151              -29.81          9.395          16.67           69.6          5.107         -8.056         -42.53          47.16          24.34          43.16          72.39
    0.1315              -29.81          9.397          16.67          69.59          5.106          -8.05         -42.53          47.17          24.31          43.17           72.4
    0.1479              -29.81          9.398          16.67          69.59          5.105         -8.044         -42.52          47.18          24.28          43.17          72.42
    0.1644              -29.81          9.399          16.67          69.58          5.104         -8.038         -42.52          47.19          24.24          43.17          72.44
    0.1808              -29.82          9.401          16.67          69.57          5.102         -8.031         -42.52           47.2           24.2          43.17          72.46
    0.1972              -29.82          9.402          16.66          69.57          5.101         -8.023         -42.52          47.21          24.16          43.18          72.48
    0.2137              -29.82          9.404          16.66          69.56            5.1         -8.015         -42.52          47.23          24.12          43.18           72.5
    0.2301              -29.82          9.406          16.66          69.55          5.098         -8.006         -42.52          47.24          24.07          43.18          72.53
    0.2465              -29.83          9.408          16.66          69.54          5.097         -7.997         -42.52          47.26          24.02          43.18          72.56
     0.263              -29.83           9.41          16.65          69.53          5.095         -7.986         -42.52          47.28          23.96          43.19          72.59
    0.2794              -29.83          9.412          16.65          69.52          5.093         -7.975         -42.51           47.3           23.9          43.19          72.62
    0.2958              -29.83          9.415          16.65           69.5          5.091         -7.963         -42.51          47.32          23.83           43.2          72.65
    0.3123              -29.84          9.418          16.64          69.49          5.089         -7.949         -42.51          47.34          23.76           43.2          72.69
    0.3287              -29.84          9.421          16.64          69.48          5.086         -7.934         -42.51          47.36          23.68          43.21          72.74
